<svg id="Слой_1" data-name="Слой 1" xmlns="http://www.w3.org/2000/svg" xmlns:xlink="http://www.w3.org/1999/xlink" viewBox="0 0 1207.77 1260.3"><defs><style>.cls-1,.cls-4{fill:none;}.cls-2{clip-path:url(#clip-path);}.cls-3{fill:#3c00ce;}.cls-4{stroke:#fff;stroke-linecap:square;stroke-miterlimit:10;stroke-width:150px;}</style><clipPath id="clip-path" transform="translate(-504.74 -382.72)"><circle class="cls-1" cx="1083" cy="1064.76" r="578.26"/></clipPath></defs><title>logo</title><g class="cls-2"><circle class="cls-3" cx="578.26" cy="682.04" r="578.26"/><path class="cls-4" d="M1618.4,1283.63A515,515,0,0,1,1463,1307.49c-269.82,0-491.2-207.44-513.35-471.54q-1.8-21.57-1.82-43.63a512.79,512.79,0,0,1,99.78-304.75" transform="translate(-504.74 -382.72)"/><path class="cls-4" d="M593.76,1373.15c42-223.52,173.49-415.48,355.87-537.2a826.94,826.94,0,0,1,460.64-139.29,836.52,836.52,0,0,1,126.43,9.56" transform="translate(-504.74 -382.72)"/></g></svg>